PathFileType	4	(X/Y/Z)	OpenSim_Sub01_EMGStiffKnee_Accel.trc
DataRate	CameraRate	NumFrames	NumMarkers	Units	OrigDataRate	OrigDataStartFrame	OrigNumFrames
100	100	34	8	m	100	4872	5567
Frame#	Time	torso_imu_offset_imu	pelvis_imu_offset_imu	tibia_r_imu_offset_imu	femur_r_imu_offset_imu	tibia_l_imu_offset_imu	femur_l_imu_offset_imu	toes_r_imu_offset_imu	toes_l_imu_offset_imu
				X1	Y1	Z1	X2	Y2	Z2	X3	Y3	Z3	X4	Y4	Z4	X5	Y5	Z5	X6	Y6	Z6	X7	Y7	Z7	X8		Y8	Z8	

4872	48.71000000	9.24531077	-1.99681165	4.96916026	9.06742298	2.54443789	4.14466741	9.81365512	3.16247034	0.80722865	10.34644076	-0.88102427	0.62526211	1.78812384	-2.39841833	1.94880610	12.39091854	-3.23946345	-2.51361200	5.48495757	-1.00965388	8.67362745	-8.50736456	5.65015709	23.72827322
4873	48.72000000	9.48511244	-1.77205704	5.22988659	9.22543534	2.78111368	4.29982476	10.23930847	3.49410350	0.40003042	9.38543675	-0.03293959	0.29548605	3.10323349	0.09684424	1.57041240	12.09418468	-2.78320901	-2.88155899	5.47317672	-1.16259066	8.58979053	-6.25919077	3.60925564	21.15214455
4874	48.73000000	9.46473851	-1.59445076	5.48422145	9.30102619	2.74122574	4.48609170	10.62369435	3.30879051	-0.09518644	8.89569591	1.40217956	-0.10983916	5.78485185	0.86280708	-0.19760950	10.84511109	-1.67434112	-2.57403288	5.40471086	-1.53657966	8.46735433	-3.51291040	2.56446293	19.45489049
4875	48.74000000	9.28373670	-1.47845759	5.64281255	9.28593820	2.49932069	4.64466741	10.62244437	2.59497031	-0.63503166	8.69847654	2.51914376	-0.46211252	8.62004315	0.60341894	-1.44065889	9.47049276	-0.30681508	-1.80154988	5.38809411	-1.95942206	8.33749772	-0.75334303	2.04977535	17.80621172
4876	48.75000000	9.03041396	-1.43329253	5.65122503	9.16584691	2.13301003	4.73502012	10.07464450	1.47441769	-1.15259747	8.63819824	2.69932058	-0.68904326	10.63518281	-0.03055348	-0.96084931	8.59806914	0.94467343	-0.79420338	5.48898594	-2.28457166	8.22194273	1.59430418	1.71316653	15.63064045
4877	48.76000000	8.74976081	-1.45381476	5.56008677	8.90769057	1.72171363	4.77395198	9.37235471	0.45266853	-1.50916425	8.66735501	2.21255669	-0.88911449	11.63691744	-0.63932518	0.18563913	8.21130653	1.78978983	0.18983561	5.63860835	-2.45224670	8.11382251	3.24640216	1.61860878	13.22379303
4878	48.77000000	8.47823614	-1.53092892	5.43720354	8.48415113	1.34453689	4.78592662	8.98565276	0.06907460	-1.56454881	8.75839632	1.48022472	-1.18023779	11.60565309	-0.88893672	0.61227352	8.17406427	1.97553602	0.89621562	5.74610418	-2.42452006	8.00368180	3.98047397	1.88783690	11.03623880
4879	48.78000000	8.24447163	-1.63608314	5.31676470	8.00568845	1.07087735	4.75143661	9.02223463	0.30732920	-1.35533091	8.88338549	0.73306694	-1.49859894	10.96319277	-0.73605349	0.22516190	8.34285822	1.57419972	1.20541058	5.76215670	-2.25044773	7.92242409	4.09739463	2.35605645	9.42731770
4880	48.79000000	8.07107054	-1.72575651	5.20708015	7.68875975	0.96264490	4.61714906	9.31084128	0.72348582	-1.05411495	9.01410769	0.05507410	-1.64055234	10.47090958	-0.36103571	-0.07474758	8.56857477	0.90841775	1.10171785	5.66944832	-2.04601904	7.93199381	4.30070292	2.63800720	8.68600708
4881	48.80000000	7.97649373	-1.76750713	5.11386752	7.66714608	1.06225068	4.36017623	9.68250925	1.00489350	-0.77355337	9.14775095	-0.47866101	-1.48042454	10.60941348	0.08812029	0.32397458	8.73322398	0.23225251	0.61786789	5.47959227	-1.89388409	8.05887247	5.02081387	2.48218768	8.92174114
4882	48.81000000	7.96735395	-1.76295762	5.03711967	7.82086077	1.35473922	4.05068114	9.99641818	1.26172250	-0.43775893	9.35700707	-0.80826832	-1.13491826	10.99909368	0.57668307	1.09643514	8.81172781	-0.42313272	-0.07742936	5.28772163	-1.77251185	8.22179361	5.84579905	2.05140126	9.71583384
4883	48.82000000	8.04739610	-1.72109586	4.97610791	7.98917349	1.81099244	3.77183932	10.12682389	1.66894550	0.05041400	9.71801259	-0.88048707	-0.75908812	11.13014931	1.07960865	1.76702220	8.80159110	-1.06427314	-0.79438451	5.19718310	-1.64417110	8.32540636	6.24697740	1.57734801	10.57491311
4884	48.83000000	8.21022968	-1.66687886	4.93514323	8.10373620	2.34867754	3.54411449	10.09571003	2.20146926	0.58461938	10.14957258	-0.69883884	-0.41133147	10.92448334	1.40346795	2.19519040	8.78119312	-1.64515262	-1.40397368	5.20317234	-1.51693613	8.36169082	6.27897958	1.17648491	11.34908652
4885	48.84000000	8.44165511	-1.63754452	4.92241495	8.16732467	2.84451821	3.33970265	10.03874831	2.68021102	0.90193215	10.44942445	-0.31056893	-0.07565190	10.63626609	1.22532236	2.49828352	8.89110716	-2.07929158	-1.82395682	5.21766262	-1.43413575	8.38983073	6.44528412	0.87653932	12.15278068
4886	48.85000000	8.71818033	-1.65449984	4.94445285	8.19484293	3.20235782	3.14008264	10.05057802	2.95070580	0.82731044	10.47385221	0.21932060	0.24846002	10.44976242	0.36969718	2.73957372	9.18958873	-2.26686182	-1.98184958	5.19358333	-1.43119253	8.43897559	7.01322165	0.68272440	12.98491969
4887	48.86000000	8.98929826	-1.69117292	5.00255914	8.23179682	3.40975340	2.95800602	10.09522388	2.94340871	0.45881855	10.26236033	0.77640686	0.50980904	10.31612159	-0.89080566	2.80195189	9.48553879	-2.07146359	-1.83057998	5.21192297	-1.51734149	8.44389379	7.51412007	0.54013608	13.48101755
4888	48.87000000	9.20106053	-1.71355737	5.09672469	8.32699651	3.46920355	2.81144926	10.11412655	2.61426291	-0.05303772	9.88980874	1.24438828	0.65182161	10.14988544	-2.20539881	2.54959395	9.55684429	-1.36604071	-1.33921925	5.36698773	-1.69397109	8.32964151	7.38622445	0.39022276	13.24818030
4889	48.88000000	9.32276207	-1.70913542	5.22178057	8.49403769	3.37519040	2.71005593	10.07213670	2.06566305	-0.52859870	9.45321483	1.61557148	0.68048560	9.96273658	-3.29297786	2.06565574	9.40715052	-0.26451701	-0.64808695	5.59809100	-1.91750742	8.13704996	6.71107919	0.28616385	12.47379158
4890	48.89000000	9.34160118	-1.68193437	5.36858175	8.71939751	3.11605251	2.65705190	9.95214440	1.51270775	-0.76583846	9.06663954	1.96582754	0.64993199	9.84110705	-3.92618178	1.60180060	9.21385778	0.93371998	-0.02927416	5.72529531	-2.10977719	7.99603702	6.06529297	0.36706020	11.79176976
4891	48.90000000	9.25938514	-1.64062373	5.52248267	8.97515314	2.71655479	2.65155792	9.76184986	1.12733477	-0.66351718	8.82691158	2.31704488	0.59321423	9.83400873	-4.01345944	1.32955688	9.11338172	1.98186408	0.31588132	5.64911420	-2.20860800	7.98948845	5.84078288	0.65564900	11.62960597
4892	48.91000000	9.11996210	-1.60640223	5.65279729	9.19266604	2.31016967	2.68098713	9.58129576	0.94461826	-0.42158272	8.77835268	2.52431934	0.47707580	9.87354876	-3.86270026	1.16945813	9.10707439	2.80352640	0.40635131	5.51823000	-2.20201757	8.05372837	5.84282908	0.82233463	11.76727818
4893	48.92000000	8.97298661	-1.60134225	5.72839667	9.30057050	2.04368269	2.73071019	9.49947687	0.97092620	-0.28224924	8.94837279	2.42208820	0.26060746	9.87612757	-3.83460184	1.00301992	9.17142705	3.35333822	0.30301393	5.51533649	-2.09117241	8.10180616	5.79871716	0.50965594	11.88670731
4894	48.93000000	8.83869118	-1.62592695	5.75589946	9.29933099	1.96235218	2.78792396	9.53920809	1.16171915	-0.28694793	9.25658774	1.99709462	-0.02816560	9.84653428	-3.97500738	0.82229050	9.28458354	3.57863887	0.08431981	5.64549986	-1.93513708	8.10396310	5.89158833	-0.08209752	11.99388468
4895	48.94000000	8.71466857	-1.66401895	5.77097779	9.24469629	2.03327469	2.84123461	9.67234855	1.43325865	-0.32257806	9.53966651	1.35333328	-0.30816401	9.85757410	-4.08742982	0.70436408	9.42595814	3.42119599	-0.15777205	5.77707626	-1.83751380	8.07447165	6.65522370	-0.32348921	12.34410745
4896	48.95000000	8.61039870	-1.69747885	5.80378788	9.17965111	2.21367226	2.88390607	9.85572538	1.68696039	-0.31350994	9.67633527	0.60609801	-0.51250062	9.94975410	-4.02916966	0.67236279	9.57278671	2.87797800	-0.35618438	5.81204193	-1.86009231	8.03504150	8.26273887	0.14653766	12.98117265
4897	48.96000000	8.57241362	-1.70348888	5.86587510	9.10502711	2.43739981	2.92293467	10.00539398	1.78312292	-0.30726782	9.67662984	-0.10470506	-0.62051447	10.06241109	-3.83587563	0.58253440	9.69573507	2.11040391	-0.51880651	5.76272206	-1.93701555	8.02611587	9.78875878	0.85876856	13.30136544
4898	48.97000000	8.64940357	-1.66047153	5.96338459	9.01482031	2.63592681	2.96586801	10.03738392	1.58993489	-0.36853942	9.57735533	-0.63897082	-0.62321939	10.12293413	-3.57343146	0.27563536	9.76505070	1.30753529	-0.66522079	5.66297059	-1.98345824	8.08689503	10.17943200	1.22633347	12.63720409
4899	48.98000000	8.81984955	-1.57834945	6.07314312	8.91735847	2.76967231	2.99051279	9.98012983	1.20739133	-0.47813292	9.45260685	-0.92170477	-0.55843761	10.15981859	-3.26673930	-0.17772928	9.76289721	0.61710879	-0.78258230	5.56350402	-1.98389936	8.18615610	9.49740800	1.19876861	11.15835599
4900	48.99000000	9.00819645	-1.49129262	6.14942224	8.83200287	2.82134830	2.95179580	9.94855672	0.91386972	-0.55230689	9.40514602	-0.92805368	-0.50000818	10.27933764	-2.90916973	-0.53008219	9.68062591	0.15500868	-0.83309450	5.52799848	-1.97615355	8.23848965	8.66460505	1.13843777	9.67874306
4901	49	9.15221324	-1.43207592	6.16471193	8.77961978	2.78419112	2.82356798	10.00777792	0.90934686	-0.53350322	9.48614110	-0.65964601	-0.50092555	10.51804489	-2.51453146	-0.61649016	9.52925857	-0.01729161	-0.79277416	5.59236836	-1.97968456	8.19072649	8.33864929	1.28703885	8.78408897
4902	49.01000000	9.23339054	-1.42747534	6.14736062	8.78470419	2.68100545	2.63766071	10.06828424	1.14720343	-0.44689939	9.59126364	-0.19296584	-0.54949309	10.69938288	-2.15977387	-0.53081270	9.37756384	0.00243861	-0.68059037	5.70904562	-1.95535113	8.08963838	8.32616520	1.49616578	8.33280029
4903	49.02000000	9.24246315	-1.49946808	6.13449945	8.86933659	2.54050174	2.43651989	10.01917527	1.53703688	-0.33267838	9.59704947	0.38034898	-0.62042630	10.62175185	-1.92980084	-0.40935460	9.29840690	0.09303829	-0.52365849	5.81754733	-1.85872014	7.99759103	8.29801510	1.56122602	8.06318266
4904	49.03000000	9.18753356	-1.61482281	6.14014654	9.00943148	2.39795976	2.26101741	9.85722468	2.01550683	-0.22666801	9.52387734	0.94899825	-0.66408779	10.29840009	-1.85386581	-0.30759855	9.26619654	0.22387004	-0.35216168	5.89509295	-1.72830251	7.93380254	8.24788688	1.51610302	7.92854086
4905	49.04000000	9.09007493	-1.69783272	6.16052690	9.14537954	2.29370534	2.15079334	9.66208939	2.54009924	-0.16133029	9.50281448	1.38658269	-0.61211699	9.90792821	-1.91838163	-0.21882218	9.17957985	0.43396169	-0.19863019	5.94792425	-1.66642525	7.88427914	8.41785273	1.57816305	8.04759510
